# xmcd
#
# Track frame offsets: 
#        150
#        10043
#        17918
#        34025
#        49613
#        62511
#        67464
#        89786
#        101981
#        114397
#        119971
#        130077
#        141339
#        149266
#        162023
#        170754
#        180196
#        205059
#        224322
#        237729
#
# Disc length: 3387 seconds
#
# Revision: 0
# Processed by: cddbd v1.5.2PL0 Copyright (c) Steve Scherf et al.
# Submitted via: ExactAudioCopy v0.95b3
#
DISCID=310d3914
DTITLE=Tom Waits  - Orphans - Brawlers, Bawlers and Bastards - Disc 3
DYEAR=1900
DGENRE=
TTITLE0=What Keeps Mankind Alive
TTITLE1=Children's Story
TTITLE2=Heigh Ho
TTITLE3=Army Ants
TTITLE4=Books Of Moses
TTITLE5=Bone Chain
TTITLE6=Two Sisters
TTITLE7=First Kiss
TTITLE8=Dog Door
TTITLE9=Redrum
TTITLE10=Nirvana
TTITLE11=Home I'll Never Be
TTITLE12=Poor Little Lamb
TTITLE13=Altar Boy
TTITLE14=The Pontiac
TTITLE15=Spidey's Wild Ride
TTITLE16=King Kong
TTITLE17=On The Road
TTITLE18=Dog Treat
TTITLE19=Missing My Son
EXTD=
EXTT0=
EXTT1=
EXTT2=
EXTT3=
EXTT4=
EXTT5=
EXTT6=
EXTT7=
EXTT8=
EXTT9=
EXTT10=
EXTT11=
EXTT12=
EXTT13=
EXTT14=
EXTT15=
EXTT16=
EXTT17=
EXTT18=
EXTT19=
PLAYORDER=
